<svg xmlns="http://www.w3.org/2000/svg" viewBox="0 0 1920 1080" preserveAspectRatio="xMidYMid slice">
  <defs>
    <radialGradient id="core" cx="63%" cy="42%" r="58%">
      <stop offset="0" stop-color="#2f6ea7"/>
      <stop offset=".45" stop-color="#113760"/>
      <stop offset="1" stop-color="#061224"/>
    </radialGradient>
    <radialGradient id="redGlow" cx="58%" cy="45%" r="28%">
      <stop offset="0" stop-color="#ff3151" stop-opacity=".32"/>
      <stop offset=".52" stop-color="#b30f25" stop-opacity=".13"/>
      <stop offset="1" stop-color="#b30f25" stop-opacity="0"/>
    </radialGradient>
    <linearGradient id="beam" x1="0" y1="0" x2="1" y2="1">
      <stop offset="0" stop-color="#ffffff" stop-opacity=".28"/>
      <stop offset=".48" stop-color="#72d4ff" stop-opacity=".09"/>
      <stop offset="1" stop-color="#ffffff" stop-opacity="0"/>
    </linearGradient>
    <linearGradient id="glass" x1="0" y1="0" x2="0" y2="1">
      <stop offset="0" stop-color="#ffffff" stop-opacity=".24"/>
      <stop offset=".52" stop-color="#ffffff" stop-opacity=".06"/>
      <stop offset="1" stop-color="#ffffff" stop-opacity=".16"/>
    </linearGradient>
    <filter id="blur">
      <feGaussianBlur stdDeviation="22"/>
    </filter>
  </defs>
  <rect width="1920" height="1080" fill="url(#core)"/>
  <ellipse cx="1140" cy="470" rx="520" ry="320" fill="url(#redGlow)" filter="url(#blur)"/>
  <path d="M-80 820C370 600 770 590 1200 330c260-157 500-190 820-126v206c-316-40-566 8-800 150-366 223-778 251-1300 444z" fill="url(#beam)" opacity=".55"/>
  <path d="M-120 190C360 330 650 410 1160 270c310-86 530-66 860 90v120c-316-110-554-129-850-38C690 588 330 462-120 342z" fill="#79c8ff" opacity=".08"/>
  <g opacity=".17" filter="url(#blur)">
    <circle cx="1200" cy="460" r="118" fill="#ff4058"/>
    <circle cx="1350" cy="438" r="94" fill="#ff4058"/>
  </g>
  <path d="M1220 282c42-75 106-113 199-104-29 91-89 137-195 132" fill="#86dd8d" opacity=".13"/>
  <path d="M1265 350c38-87 89-148 153-184" fill="none" stroke="#9cffad" stroke-width="11" stroke-linecap="round" opacity=".12"/>
  <text x="1290" y="620" text-anchor="middle" font-family="Georgia, serif" font-size="118" letter-spacing="9" fill="#ffffff" opacity=".08">MONTHLY.LIVE</text>
  <text x="1290" y="708" text-anchor="middle" font-family="Georgia, serif" font-size="42" letter-spacing="13" fill="#ffffff" opacity=".08">CHERRY NETWORK</text>
  <rect x="-40" y="-40" width="2000" height="1160" fill="none" stroke="url(#glass)" stroke-width="80" opacity=".38"/>
</svg>
